<?xml version="1.0" standalone="no"?>
<!DOCTYPE svg PUBLIC "-//W3C//DTD SVG 20010904//EN"
 "http://www.w3.org/TR/2001/REC-SVG-20010904/DTD/svg10.dtd">
<svg version="1.0" xmlns="http://www.w3.org/2000/svg"
 width="800.000000pt" height="800.000000pt" viewBox="0 0 800.000000 800.000000"
 preserveAspectRatio="xMidYMid meet">
<metadata>
Created by potrace 1.11, written by Peter Selinger 2001-2013
</metadata>
<g transform="translate(0.000000,800.000000) scale(0.100000,-0.100000)"
fill="#000000" stroke="none">
<path d="M3750 7734 c-19 -2 -91 -9 -160 -15 -850 -73 -1690 -469 -2310 -1089
-973 -972 -1326 -2376 -929 -3690 397 -1318 1541 -2334 2909 -2584 263 -48
405 -60 705 -60 300 0 442 12 705 60 1057 194 2004 853 2551 1775 264 445 432
942 496 1469 24 201 24 628 0 830 -44 365 -143 733 -285 1057 -82 189 -265
516 -355 637 -5 7 -611 -594 -1561 -1548 l-1554 -1560 -794 784 c-436 432
-868 859 -961 950 l-167 165 275 275 275 275 182 -181 c600 -595 1183 -1164
1189 -1162 5 2 589 587 1300 1301 1291 1297 1291 1298 1273 1319 -11 12 -74
67 -141 123 -572 477 -1288 777 -2038 855 -111 11 -541 22 -605 14z m395
-1269 c203 -54 373 -192 465 -380 55 -111 73 -189 74 -315 0 -128 -18 -202
-80 -328 -80 -164 -232 -294 -419 -359 -73 -25 -92 -27 -225 -27 -130 0 -153
3 -225 27 -115 38 -199 91 -290 182 -92 92 -144 175 -182 290 -22 68 -26 98
-27 205 -1 143 14 212 70 326 98 201 303 353 532 394 67 13 236 4 307 -15z
m2262 -2057 c150 -150 272 -277 272 -283 -1 -9 -142 -147 -968 -950 -119 -116
-558 -548 -976 -961 -418 -412 -766 -754 -773 -758 -8 -5 -291 269 -860 831
-466 462 -1074 1063 -1352 1337 -278 273 -506 500 -508 504 -3 8 537 537 548
537 4 0 492 -478 1084 -1063 l1078 -1063 106 100 c59 55 545 536 1080 1070
536 534 979 971 985 971 7 0 135 -123 284 -272z"/>
</g>
</svg>
