<?xml version="1.0" encoding="utf-8"?>
<!-- Generator: Adobe Illustrator 16.0.3, SVG Export Plug-In . SVG Version: 6.00 Build 0)  -->
<!DOCTYPE svg PUBLIC "-//W3C//DTD SVG 1.1//EN" "http://www.w3.org/Graphics/SVG/1.1/DTD/svg11.dtd">
<svg version="1.1" xmlns="http://www.w3.org/2000/svg" xmlns:xlink="http://www.w3.org/1999/xlink" x="0px" y="0px" width="216px"
	 height="216px" viewBox="0 0 216 216" enable-background="new 0 0 216 216" xml:space="preserve">
<g id="Layer_1" display="none">
	<g display="inline">
		<path fill="#FFCE00" d="M215.823,108.248c0,59.525-48.253,107.776-107.779,107.776S0.268,167.772,0.268,108.248
			C0.268,48.72,48.519,0.469,108.044,0.469S215.823,48.72,215.823,108.248z"/>
		<g>
			<g>
				<g>
					<path fill="#CC342F" d="M173.98,46.43c-17.578-33.513-50.106-9.75-44.41,15.297c4.496,19.68,26.095,47.605,26.095,47.605
						c3.113-1.094,33.209-11.953,47.565-26.148C221.492,65.124,206.822,27.607,173.98,46.43z"/>
				</g>
			</g>
			<g>
				<g>
					<path fill="#CC342F" d="M42.105,46.43c17.585-33.513,50.111-9.75,44.408,15.297c-4.487,19.68-26.09,47.605-26.09,47.605
						c-3.113-1.094-33.209-11.953-47.563-26.148C-5.401,65.124,9.269,27.607,42.105,46.43z"/>
				</g>
			</g>
		</g>
		<g>
			<g>
				<path fill="#562912" d="M68.692,129.901c-2.697-0.893-5.231,2.028-4.448,5.15c4.633,18.405,22.462,32.127,43.801,32.127
					c21.343,0,39.172-13.722,43.8-32.127c0.785-3.122-1.751-6.043-4.448-5.15c-11.832,3.925-25.198,6.133-39.352,6.133
					C93.895,136.034,80.528,133.826,68.692,129.901z"/>
			</g>
		</g>
		<g>
			<g>
				<path fill="#CC342F" d="M108.044,148.462c-9.385,0-17.455,5.711-21.005,13.88c6.272,3.071,13.413,4.837,21.005,4.837
					c7.6,0,14.738-1.766,21.002-4.837C125.496,154.173,117.437,148.462,108.044,148.462z"/>
			</g>
		</g>
	</g>
</g>
<g id="Layer_2">
	<g>
		<path fill="#FFCE00" d="M215.653,108.393c0,59.431-48.176,107.607-107.606,107.607c-59.434,0-107.61-48.177-107.61-107.607
			c0-59.436,48.176-107.609,107.61-107.609C167.478,0.784,215.653,48.957,215.653,108.393z"/>
		<g>
			<g>
				<g>
					<path fill="#562912" d="M170.406,94.519c1.116,0.689,2.588-0.094,2.588-1.404c0-0.013,0-0.02,0-0.033
						c0-7.849-6.36-14.217-14.214-14.217c-7.848,0-14.212,6.368-14.212,14.217c0,0.014,0,0.021,0,0.033
						c0,1.31,1.471,2.093,2.588,1.404c3.378-2.089,7.36-3.297,11.624-3.297C163.047,91.221,167.026,92.429,170.406,94.519z"/>
				</g>
			</g>
			<g>
				<g>
					<path fill="#562912" d="M68.942,94.519c1.112,0.689,2.579-0.094,2.589-1.404c0-0.013,0-0.02,0-0.033
						c0-7.849-6.367-14.217-14.225-14.217c-7.85,0-14.212,6.368-14.212,14.217c0,0.014,0,0.021,0,0.033
						c0.005,1.31,1.474,2.093,2.586,1.404c3.382-2.089,7.362-3.297,11.626-3.297C61.575,91.221,65.558,92.429,68.942,94.519z"/>
				</g>
			</g>
		</g>
		<g>
			<g>
				<g>
					<path fill="#562912" d="M108.628,157.41c-18.007,0-35.828-6.963-48.889-19.104c-2.127-1.979-2.25-5.308-0.272-7.438
						c1.977-2.125,5.309-2.251,7.438-0.269c11.135,10.347,26.343,16.283,41.723,16.283c14.833,0,29.648-5.578,40.653-15.31
						c2.181-1.922,5.502-1.716,7.427,0.457c1.926,2.177,1.723,5.501-0.456,7.427C143.161,151.035,126.252,157.41,108.628,157.41z"/>
				</g>
			</g>
		</g>
	</g>
</g>
<g id="Layer_3" display="none">
	<g display="inline">
		<path fill="#FFCE00" d="M210.82,107.384c0,57.992-47.014,105-105.006,105c-57.996,0-104.999-47.008-104.999-105
			c0-57.994,47.003-105,104.999-105C163.807,2.384,210.82,49.39,210.82,107.384z"/>
		<g>
			<g>
				<path fill="#562912" d="M52.939,123.957c-3.111,0-5.26,2.987-4.431,5.987c5.497,20.023,29.248,35.1,57.784,35.1
					c28.717,0,52.585-15.267,57.893-35.479c0.749-2.856-1.568-5.608-4.519-5.608H52.939z"/>
			</g>
			<g>
				<g>
					<path fill="#562912" d="M106.292,131.804c15.574,0,29.859-2.947,41.197-7.849H65.08
						C76.415,128.856,90.709,131.804,106.292,131.804z"/>
				</g>
				<g>
					<path fill="#562912" d="M107.273,154.133c-8.271,0-15.713,3.204-20.997,8.308c6.255,1.675,12.989,2.604,20.016,2.604
						c7.613,0,14.866-1.102,21.539-3.057C122.584,157.142,115.311,154.133,107.273,154.133z"/>
				</g>
			</g>
		</g>
		<g>
			<g>
				<g>
					<path fill="#562912" d="M175.739,103.373c1.085,0.672,2.521-0.092,2.521-1.374c0-0.006,0-0.019,0-0.032
						c0-7.661-6.207-13.868-13.867-13.868c-7.661,0-13.868,6.208-13.868,13.868c0,0.008,0,0.026,0,0.032
						c0,1.282,1.436,2.046,2.525,1.374c3.299-2.039,7.179-3.219,11.343-3.219C168.555,100.154,172.44,101.334,175.739,103.373z"/>
				</g>
			</g>
			<g>
				<g>
					<path fill="#562912" d="M59.612,103.373c1.08,0.672,2.518-0.092,2.525-1.374c0-0.006,0-0.019,0-0.032
						c0-7.661-6.217-13.868-13.877-13.868s-13.868,6.208-13.868,13.868c0,0.008,0,0.026,0,0.032c0,1.282,1.436,2.046,2.526,1.374
						c3.293-2.039,7.179-3.219,11.342-3.219S56.306,101.334,59.612,103.373z"/>
				</g>
			</g>
		</g>
		<g>
			<g>
				<path fill="#562912" d="M38.688,79.617c-0.247,0-0.496-0.03-0.747-0.086c-1.846-0.406-3.009-2.238-2.599-4.081
					c1.301-5.854,4.997-10.383,10.399-12.75c5.395-2.366,11.833-2.175,16.394,0.479c1.637,0.949,2.187,3.043,1.239,4.68
					c-0.95,1.63-3.04,2.189-4.682,1.237c-2.697-1.565-6.8-1.617-10.203-0.126c-2.372,1.04-5.421,3.268-6.463,7.964
					C41.671,78.526,40.258,79.617,38.688,79.617z"/>
			</g>
			<g>
				<path fill="#562912" d="M173.967,79.617c-1.568,0-2.985-1.091-3.341-2.684c-1.043-4.696-4.09-6.925-6.464-7.964
					c-3.4-1.486-7.502-1.435-10.202,0.126c-1.64,0.959-3.729,0.393-4.682-1.237c-0.948-1.636-0.396-3.731,1.241-4.68
					c4.563-2.657,10.993-2.847,16.394-0.479c5.404,2.367,9.096,6.896,10.396,12.75c0.412,1.843-0.751,3.675-2.597,4.081
					C174.459,79.587,174.213,79.617,173.967,79.617z"/>
			</g>
		</g>
		<g>
			<path fill="#61C0EB" d="M215.185,84.391c0,10.471-7.085,18.95-15.818,18.95s-15.813-8.479-15.813-18.95
				c0-7.982,9.212-27.243,13.574-35.914c0.926-1.852,3.552-1.852,4.487,0C205.977,57.147,215.185,76.408,215.185,84.391z"/>
		</g>
	</g>
	<g display="inline">
		<path fill="#FFCE00" d="M216,108c0,59.525-48.254,107.777-107.777,107.777C48.695,215.777,0.445,167.525,0.445,108
			c0-59.528,48.25-107.777,107.778-107.777C167.746,0.223,216,48.472,216,108z"/>
		<g>
			<g>
				<path fill="#FFFFFF" d="M109.42,126.645c-8.213,0-15.567,3.514-20.645,9.076h41.288
					C124.99,130.158,117.631,126.645,109.42,126.645z"/>
			</g>
			<g>
				<g>
					<path fill="#562912" d="M126.143,175.466c6.674-4.968,11.002-12.804,11.002-21.647c0-6.962-2.689-13.295-7.082-18.098H88.775
						c-4.391,4.803-7.082,11.136-7.082,18.098c0,8.844,4.333,16.68,11.009,21.647c4.8-2.753,10.538-4.362,16.718-4.362
						C115.598,171.104,121.336,172.713,126.143,175.466z"/>
				</g>
				<g>
					<path fill="#CC342F" d="M126.143,175.466c-4.807-2.753-10.545-4.362-16.723-4.362c-6.18,0-11.918,1.609-16.718,4.362
						c4.649,3.451,10.432,5.53,16.718,5.53C115.709,180.996,121.488,178.917,126.143,175.466z"/>
				</g>
			</g>
		</g>
		<g>
			<g>
				<path fill="#562912" d="M43.126,63.173c-0.856,0-1.708-0.36-2.308-1.06c-1.093-1.277-0.943-3.196,0.332-4.285
					c6.96-5.958,15.819-9.697,24.945-10.521c1.677-0.131,3.148,1.082,3.299,2.751c0.15,1.673-1.082,3.149-2.753,3.295
					c-7.88,0.715-15.531,3.939-21.541,9.093C44.528,62.93,43.825,63.173,43.126,63.173z"/>
			</g>
			<g>
				<path fill="#562912" d="M173.324,63.173c-0.699,0-1.398-0.243-1.973-0.727c-6.018-5.153-13.668-8.378-21.547-9.093
					c-1.672-0.146-2.902-1.623-2.752-3.295c0.15-1.669,1.633-2.882,3.299-2.751c9.123,0.824,17.984,4.563,24.949,10.521
					c1.273,1.089,1.424,3.008,0.33,4.28C175.031,62.813,174.182,63.173,173.324,63.173z"/>
			</g>
		</g>
		<g>
			<g>
				<g>
					<path fill="#FFFFFF" d="M176.906,91.404c0,13.021-10.191,23.559-22.762,23.559c-12.572,0-22.766-10.538-22.766-23.559
						c0-13.006,10.193-23.549,22.766-23.549C166.715,67.855,176.906,78.397,176.906,91.404z"/>
				</g>
				<g>
					<path fill="#562912" d="M163.865,91.404c0,5.557-4.354,10.069-9.721,10.069c-5.369,0-9.729-4.512-9.729-10.069
						c0-5.555,4.359-10.059,9.729-10.059C159.512,81.345,163.865,85.849,163.865,91.404z"/>
				</g>
			</g>
			<g>
				<g>
					<path fill="#FFFFFF" d="M85.067,91.404c0,13.021-10.189,23.559-22.762,23.559c-12.57,0-22.763-10.538-22.763-23.559
						c0-13.006,10.193-23.549,22.763-23.549C74.878,67.855,85.067,78.397,85.067,91.404z"/>
				</g>
				<g>
					<path fill="#562912" d="M72.026,91.404c0,5.557-4.354,10.069-9.722,10.069c-5.369,0-9.725-4.512-9.725-10.069
						c0-5.555,4.356-10.059,9.725-10.059C67.672,81.345,72.026,85.849,72.026,91.404z"/>
				</g>
			</g>
		</g>
	</g>
</g>
<g id="Layer_4" display="none">
	<g display="inline">
		<path fill="#FFCE00" d="M215.278,108.07c0,59.251-48.027,107.278-107.277,107.278c-59.252,0-107.279-48.027-107.279-107.278
			S48.749,0.792,108.001,0.792C167.251,0.792,215.278,48.819,215.278,108.07z"/>
		<g>
			<path fill="#562912" d="M156.953,141.352H59.044c-2.896,0-5.246-2.348-5.246-5.248c0-2.896,2.35-5.246,5.246-5.246h97.909
				c2.897,0,5.246,2.351,5.246,5.246C162.199,139.004,159.851,141.352,156.953,141.352z"/>
		</g>
		<g>
			<g>
				<circle fill="#562912" cx="152.804" cy="89.814" r="11.324"/>
			</g>
			<g>
				<circle fill="#562912" cx="63.19" cy="89.814" r="11.326"/>
			</g>
		</g>
	</g>
</g>
<g id="Layer_5" display="none">
	<g display="inline">
		<linearGradient id="SVGID_1_" gradientUnits="userSpaceOnUse" x1="107.9995" y1="-21.2446" x2="107.9995" y2="196.1345">
			<stop  offset="0" style="stop-color:#2A97FF"/>
			<stop  offset="0.5222" style="stop-color:#75BEBE"/>
			<stop  offset="0.8079" style="stop-color:#F6CD0C"/>
			<stop  offset="1" style="stop-color:#FFCE00"/>
		</linearGradient>
		<path fill="url(#SVGID_1_)" d="M214.777,108.376c0,58.973-47.806,106.777-106.779,106.777
			c-58.974,0-106.776-47.804-106.776-106.777C1.222,49.4,49.024,1.595,107.998,1.595C166.972,1.595,214.777,49.4,214.777,108.376z"
			/>
		<g>
			<g>
				<g>
					<g>
						<ellipse fill="#562912" cx="64.589" cy="111.323" rx="10.967" ry="15.563"/>
					</g>
				</g>
			</g>
			<g>
				<g>
					<g>
						<path fill="#562912" d="M164.488,111.323c0,8.597-4.908,15.563-10.961,15.563c-6.061,0-10.973-6.966-10.973-15.563
							c0-8.594,4.912-15.567,10.973-15.567C159.58,95.756,164.488,102.729,164.488,111.323z"/>
					</g>
				</g>
			</g>
		</g>
		<g>
			<g>
				<path fill="#562912" d="M140.991,170.304c2.778,0.566,4.684-3.563,2.84-6.273c-8.093-11.93-20.648-19.595-34.774-19.595
					c-14.128,0-26.687,7.665-34.777,19.595c-1.841,2.71,0.063,6.84,2.838,6.273c9.588-1.961,20.44-3.065,31.938-3.065
					C120.554,167.238,131.403,168.343,140.991,170.304z"/>
			</g>
		</g>
		<g>
			<g>
				<path fill="#562912" d="M173.364,83.497c-0.177,0-0.355-0.017-0.537-0.043c-17.349-2.679-26.068-16.757-26.432-17.355
					c-0.998-1.646-0.473-3.786,1.168-4.783c1.644-1.002,3.777-0.477,4.778,1.167c0.13,0.205,7.534,11.927,21.55,14.093
					c1.903,0.296,3.205,2.072,2.91,3.966C176.537,82.263,175.054,83.497,173.364,83.497z"/>
			</g>
			<g>
				<path fill="#562912" d="M44.745,83.497c-1.688,0-3.169-1.229-3.436-2.956c-0.292-1.894,1.008-3.67,2.91-3.966
					c14.181-2.195,21.471-13.967,21.544-14.085c0.995-1.646,3.131-2.181,4.784-1.174c1.645,0.998,2.166,3.137,1.171,4.783
					c-0.366,0.598-9.083,14.676-26.435,17.355C45.1,83.479,44.922,83.497,44.745,83.497z"/>
			</g>
		</g>
		<g>
			<path fill="#61C0EB" d="M64.586,160.87c0,8.356-6.774,15.137-15.133,15.137c-8.357,0-15.132-6.78-15.132-15.137
				c0-6.392,8.845-21.552,13.011-28.336c0.975-1.586,3.267-1.586,4.242,0C55.739,139.318,64.586,154.479,64.586,160.87z"/>
		</g>
	</g>
</g>
<g id="Layer_6" display="none">
	<g display="inline">
		<path fill="#D24103" d="M215.528,108.474c0,59.388-48.14,107.526-107.529,107.526C48.611,216,0.473,167.861,0.473,108.474
			S48.611,0.947,107.999,0.947C167.389,0.947,215.528,49.086,215.528,108.474z"/>
		<g>
			<g>
				<g>
					<g>
						<path fill="#562912" d="M77.762,114.457c0,8.652-4.942,15.674-11.042,15.674c-6.095,0-11.04-7.021-11.04-15.674
							c0-8.658,4.945-15.674,11.04-15.674C72.819,98.783,77.762,105.799,77.762,114.457z"/>
					</g>
				</g>
			</g>
			<g>
				<g>
					<g>
						<path fill="#562912" d="M160.314,114.457c0,8.652-4.94,15.674-11.043,15.674c-6.098,0-11.042-7.021-11.042-15.674
							c0-8.658,4.944-15.674,11.042-15.674C155.374,98.783,160.314,105.799,160.314,114.457z"/>
					</g>
				</g>
			</g>
		</g>
		<g>
			<g>
				<g>
					<path fill="#562912" d="M84.276,104.154c-1.305,0-2.519-0.855-2.907-2.175c-3.244-11.024-14.279-19.438-27.452-20.931
						c-1.66-0.184-2.855-1.687-2.669-3.353c0.189-1.662,1.677-2.872,3.353-2.667c15.561,1.765,28.656,11.911,32.586,25.243
						c0.471,1.606-0.446,3.29-2.053,3.765C84.849,104.121,84.558,104.154,84.276,104.154z"/>
				</g>
			</g>
			<g>
				<g>
					<path fill="#562912" d="M131.722,104.154c-0.283,0-0.57-0.033-0.858-0.119c-1.608-0.475-2.523-2.158-2.049-3.765
						c3.922-13.332,17.015-23.478,32.581-25.243c1.689-0.197,3.162,1.005,3.349,2.667c0.189,1.667-1.004,3.163-2.666,3.353
						c-13.173,1.494-24.206,9.907-27.452,20.931C134.238,103.298,133.029,104.154,131.722,104.154z"/>
				</g>
			</g>
		</g>
		<g>
			<g>
				<path fill="#562912" d="M129.643,165.186c-1.193,0-2.391-0.434-3.329-1.311c-4.501-4.199-10.649-6.648-17.313-6.902
					c-7.388-0.326-14.41,2.215-19.279,6.861c-1.954,1.863-5.045,1.791-6.908-0.16c-1.861-1.953-1.791-5.047,0.162-6.91
					c6.768-6.457,16.402-9.938,26.404-9.557c9,0.346,17.38,3.723,23.594,9.518c1.976,1.84,2.079,4.934,0.242,6.904
					C132.256,164.664,130.95,165.186,129.643,165.186z"/>
			</g>
		</g>
	</g>
</g>
</svg>
